<?xml version="1.0" encoding="utf-8"?>
<!-- Generator: Adobe Illustrator 23.0.4, SVG Export Plug-In . SVG Version: 6.00 Build 0)  -->
<svg version="1.1" id="Capa_1" xmlns="http://www.w3.org/2000/svg" xmlns:xlink="http://www.w3.org/1999/xlink" x="0px" y="0px"
	 viewBox="0 0 612 792" style="enable-background:new 0 0 612 792;" xml:space="preserve">
<style type="text/css">
	.st0{fill:none;stroke:#FFFFFF;stroke-miterlimit:10;}
	.st1{fill:#FFFFFF;stroke:#FFFFFF;stroke-miterlimit:10;}
</style>
<polygon class="st0" points="428.46,136.32 428.46,197.07 427.9,200.27 426.29,201.12 366.96,201.12 364.42,200.65 363.51,198.67 
	363.51,136.54 365.77,135.28 425.63,135.28 "/>
<path class="st0" d="M385.39,175.19c-0.37,0.59-1.3,2.04-3.14,2.83c-1.36,0.58-2.56,0.51-3.37,0.47c-0.78-0.04-1.98-0.12-3.3-0.84
	c-1.3-0.71-2-1.66-2.4-2.19c-0.5-0.7-1.23-1.69-1.38-3.14c-0.1-1.01,0.13-1.76,0.44-2.8c0.38-1.24,0.7-2.3,1.65-3.27
	c0.97-0.98,2.13-1.39,2.93-1.68c0.3-0.11,0.85-0.29,1.56-0.41c0.58-0.1,1.23-0.21,2.02-0.1c0.22,0.03,0.8,0.13,1.65,0.54
	c0.78,0.38,2.34,1.13,3.44,2.93c0.92,1.52,1.03,2.99,1.04,3.61C386.54,171.52,386.54,173.32,385.39,175.19z"/>
<path class="st1" d="M388.78,171.32c-0.19-2.17-1.09-3.71-1.72-4.79c-0.6-1.05-1.03-1.72-1.85-2.45c-1.46-1.29-3.02-1.67-4.04-1.92
	c-0.71-0.17-2.03-0.49-3.75-0.29c-0.59,0.08-2.53,0.35-4.55,1.74c-0.35,0.25-1.71,1.21-2.87,2.96c-0.45,0.67-1.28,1.94-1.57,3.75
	c-0.04,0.19-0.08,0.5-0.1,0.87c-0.02,0.33-0.09,1.78,0.52,3.59c0.45,1.32,1.08,2.26,1.53,2.91c0.37,0.54,0.91,1.31,1.67,1.98
	c1.52,1.3,3.23,1.57,4.55,1.77c1.32,0.21,3.89,0.61,6.72-0.7c0.77-0.35,2.49-1.18,3.85-3.1
	C389.07,174.95,388.86,172.07,388.78,171.32z M384.51,175.46c-0.35,0.57-1.23,1.96-2.98,2.71c-1.29,0.56-2.43,0.49-3.19,0.45
	c-0.74-0.04-1.88-0.12-3.13-0.81c-1.23-0.68-1.9-1.59-2.28-2.1c-0.47-0.67-1.17-1.62-1.31-3.01c-0.09-0.97,0.12-1.69,0.42-2.69
	c0.36-1.19,0.66-2.21,1.56-3.14c0.92-0.94,2.02-1.33,2.78-1.61c0.28-0.11,0.81-0.28,1.48-0.39c0.55-0.1,1.17-0.2,1.91-0.1
	c0.21,0.03,0.76,0.12,1.56,0.52c0.74,0.36,2.22,1.08,3.26,2.81c0.87,1.46,0.98,2.87,0.99,3.46
	C385.6,171.94,385.6,173.66,384.51,175.46z"/>
<path class="st0" d="M385.39,175.19c-0.37,0.59-1.3,2.04-3.14,2.83c-1.36,0.58-2.56,0.51-3.37,0.47c-0.78-0.04-1.98-0.12-3.3-0.84
	c-1.3-0.71-2-1.66-2.4-2.19c-0.5-0.7-1.23-1.69-1.38-3.14c-0.1-1.01,0.13-1.76,0.44-2.8c0.38-1.24,0.7-2.3,1.65-3.27
	c0.97-0.98,2.13-1.39,2.93-1.68c0.3-0.11,0.85-0.29,1.56-0.41c0.58-0.1,1.23-0.21,2.02-0.1c0.22,0.03,0.8,0.13,1.65,0.54
	c0.78,0.38,2.34,1.13,3.44,2.93c0.92,1.52,1.03,2.99,1.04,3.61C386.54,171.52,386.54,173.32,385.39,175.19z"/>
<path class="st1" d="M380.93,192.27c0.01,0.69,0.04,0.8,0,1.14c-0.05,0.36-0.06,0.57-0.19,0.81c-0.16,0.29-0.37,0.46-0.64,0.63
	c-0.21,0.15-0.53,0.37-0.99,0.42c-0.41,0.05-0.72-0.07-0.85-0.11c-0.17-0.06-0.69-0.25-1.02-0.77c-0.08-0.13-0.21-0.37-0.28-1.08
	c-0.06-0.66-0.02-1.07,0-1.56c0.03-0.8-0.06-0.67-0.11-2.39c-0.04-1.09,0.01-0.83-0.03-1.78c-0.04-0.89-0.08-1.38,0.06-2.11
	c0.14-0.75,0.32-0.94,0.38-1.01c0.34-0.33,0.78-0.33,1.49-0.33c0.72-0.01,1.15-0.01,1.54,0.3c0.4,0.33,0.52,0.78,0.61,1.15
	c0.13,0.55,0.05,0.81,0,1.69c-0.05,0.8,0.02,0.63,0.03,2.92c0,0,0,0.48,0,1.08C380.93,191.94,380.93,192.27,380.93,192.27z"/>
<path class="st1" d="M423.9,174.13c-0.08-2.5,0.24-2.02,0.35-6.58c0.05-1.76-0.02-1.16-0.06-6.7c-0.02-2.78-0.51-5.58-0.23-8.35
	c0.08-0.87,0.25-2.15-0.24-2.38c-0.43-0.19-0.92,0.63-2.19,1.49c-0.82,0.55-2.16,0.98-4.81,1.81c-1.56,0.49-2.34,0.74-2.98,0.84
	c-0.67,0.12-2.25,0.34-4.24,0.09c-0.7-0.09-2.19-0.56-5.17-1.5c-0.45-0.14-1.16-0.37-2.04-0.78c-1.1-0.52-1.81-1.01-1.96-1.12
	c-0.39-0.27-0.97-0.68-1.55-1.31c-1.04-1.12-0.85-1.59-1.5-2.12c-0.5-0.41-1.53-0.49-3.56-0.42c-1.46,0.05-2.92,0.06-4.39,0.12
	c-2,0.08-2.93-0.01-5.09-0.06c-7.21-0.17-7.49,0.63-8.96,0.12c-0.29-0.1-1.38-0.51-2.31-0.06c-0.11,0.05-0.48,0.24-0.77,0.65
	c-0.34,0.5-0.35,1.04-0.36,1.31c0,1.55,0,2.32,0.12,3.26c0.21,1.51,0.55,5.6-0.06,7.47c-0.04,0.13-0.17,0.49,0,0.71
	c0.29,0.37,1.24,0.06,1.84-0.12c0,0,1.4-0.42,4-0.86c2.26-0.38,4.14,0.09,5.07,0.33c0.9,0.23,2.15,0.65,3.49,1.45
	c0.78,0.46,1.58,0.95,2.38,1.87c0.52,0.62,0.84,1.19,1.44,2.28c0.4,0.72,0.65,1.17,0.9,1.84c0.46,1.19,0.58,2.18,0.62,2.49
	c0.13,1.14,0.01,1.98-0.15,3.14c-0.1,0.78-0.23,1.68-0.61,2.81c-0.27,0.8-0.51,1.53-1.08,2.35c-0.7,0.99-1.52,1.66-1.52,1.66
	c-0.81,0.65-1.46,0.89-1.44,1.33c0.02,0.31,0.36,0.52,0.48,0.59c1.44,0.94,5.27,0.16,6.1,0c0.15-0.02,2.87-0.03,8.3,0
	c4.58,0.03,6.87,0.07,10.02,0.24c0.48,0.02,2.36,0.08,6.11,0.18c0,0,1.37,0.03,4.09-0.18c1.54-0.12,1.7-0.2,1.84-0.3
	C425.01,180.83,424.04,178.43,423.9,174.13z M397.82,158.84c0.04-0.24,0.08-0.53,0.31-0.79c0.05-0.04,0.24-0.25,0.7-0.39
	c0.47-0.14,0.84-0.1,1.16-0.08c0.61,0.03,1.23-0.02,1.85-0.03c1.19-0.02,1.2-0.04,1.85-0.03c0.75,0.01,0.71,0.04,1.49,0.06
	c1.19,0.02,1.29-0.04,2.22,0c0.51,0.02,0.38,0.03,1.52,0.11c0.51,0.03,0.96,0.06,1.55,0.08c0.53,0.02,0.92,0.03,1.57,0.03
	c1.06,0.01,1.06-0.01,2.02,0c0.14,0,0.85,0.01,1.77,0.03c0.74,0.02,1.13,0.03,1.13,0.03c0.91,0.02,0.93,0.03,1.18,0.03
	c0.59-0.02,0.66-0.08,1.01-0.03c0.23,0.03,0.55,0.08,0.87,0.31c0.26,0.19,0.4,0.41,0.48,0.53c0.04,0.08,0.16,0.28,0.31,0.93
	c0.07,0.33,0.13,0.6,0.16,0.98c0.06,0.6-0.03,0.75-0.02,1.52c0,0.56,0.05,0.49,0.05,1.01c0.01,0.32,0,0.98-0.17,1.8
	c-0.12,0.62-0.19,0.98-0.45,1.4c-0.13,0.23-0.33,0.56-0.7,0.79c-0.51,0.33-1.08,0.27-1.4,0.25h-0.08c0.08,0.03,0.44,0.14-3.35,0.2
	c-1.36,0.02-2.04,0.03-2.89,0.03c-2.04-0.02-2.19-0.1-3.63-0.06c-0.77,0.02-1.55,0.02-1.85,0.03c-0.85,0.02-1.3,0.03-1.91,0.06
	c-1.31,0.05-1.37,0.1-2.48,0.14c-1.07,0.03-0.96-0.02-1.4,0.02c-0.45,0.05-0.81,0.13-1.32,0.03c-0.31-0.05-0.51-0.14-0.62-0.19
	c-0.11-0.06-0.44-0.22-0.65-0.48c-0.24-0.31-0.17-0.57-0.22-1.46c-0.04-0.78-0.09-0.63-0.14-1.49c-0.01-0.15-0.02-0.42-0.03-1.55
	c-0.01-1.05,0-0.93,0-1.63C397.71,160.54,397.69,159.75,397.82,158.84z M377.3,150.23c0.14-0.34,0.46-0.48,0.51-0.5
	c0.36-0.16,0.55-0.32,0.62-0.29c0.23-0.08,0.64-0.12,1.07-0.15c0,0,0.3,0.01,0.69-0.02c0.8-0.08,1.72-0.16,3.05-0.13
	c1.14,0.03,1.71,0.04,1.97,0.04c0.84,0.02,1.22,0.02,1.92,0.05c0.62,0.02,0.62,0.03,1.04,0.04c0.81,0.02,1.09-0.01,1.72,0
	c0.93,0.01,0.86,0.07,1.67,0.08c0.93,0.01,1.27,0.01,2.76-0.08c0.6-0.04,0.99-0.08,1.38,0.16c0.47,0.29,0.87,0.92,0.75,1.59
	c-0.1,0.59-0.56,0.92-0.63,0.96c-0.5,0.35-1.01,0.22-1.92,0.17c-1.18-0.07-0.9,0.12-2.88,0.13c-1.27,0-1.22-0.07-2.51-0.09
	c-1.28-0.01-1.33,0.06-3.51,0.13c-1.63,0.05-2.81,0.04-3.22,0.04c-1.99-0.01-1.6-0.08-2.22-0.04c-1.15,0.07-1.7,0.26-2.01-0.09
	c-0.09-0.1-0.02-0.11-0.25-1.33C377.26,150.63,377.22,150.45,377.3,150.23z M390.48,156.87c-2.56,0.13-2.19,0.13-2.62,0.14
	c-1.42,0.04-1.52-0.03-4.07-0.04c-0.77-0.01-1.45-0.01-2.77,0c-0.79,0-1.59-0.08-2.38,0c-1,0.09-1.56,0.26-2.25-0.05
	c-0.2-0.09-0.61-0.29-0.8-0.7c-0.02-0.06-0.06-0.17-0.09-0.94c-0.03-0.74,0-0.82,0.05-0.89c0.23-0.37,0.89-0.34,1.12-0.33
	c1.22,0.05,2.44-0.2,3.65-0.14c1.96,0.11,1.45-0.1,4.82-0.04c1.43,0.02,1.41,0.06,3.37,0.09c1.99,0.03,2.98,0.05,3.37,0
	c0.88-0.11,1.32-0.11,2.2-0.09c0.73,0.01,1.03,0.05,1.27,0.28c0.48,0.44,0.4,1.27,0.37,1.49c-0.03,0.3-0.05,0.55-0.23,0.75
	c-0.35,0.4-1.01,0.29-1.64,0.24C392.73,156.55,391.6,156.81,390.48,156.87z M414.05,178.09c-0.03,0.29-0.06,0.55-0.24,0.75
	c-0.35,0.39-1.01,0.28-1.64,0.23c-1.12-0.09-2.24,0.18-3.37,0.23c-2.56,0.14-2.19,0.13-2.62,0.15c-1.41,0.03-1.51-0.04-4.07-0.05
	c-0.76-0.01-1.44,0-2.76,0c-0.8,0-1.6-0.08-2.39,0c-1,0.09-1.55,0.27-2.25-0.05c-0.2-0.09-0.61-0.28-0.79-0.7
	c-0.03-0.06-0.07-0.17-0.1-0.94c-0.02-0.73,0.01-0.82,0.05-0.89c0.23-0.36,0.89-0.33,1.12-0.32c1.22,0.04,2.44-0.21,3.66-0.14
	c1.96,0.1,1.44-0.11,4.82-0.05c1.42,0.02,1.4,0.06,3.37,0.09c1.98,0.04,2.97,0.05,3.37,0c0.87-0.11,1.31-0.1,2.2-0.09
	c0.72,0.01,1.02,0.06,1.26,0.28C414.16,177.03,414.07,177.86,414.05,178.09z M421.16,179.23c-0.38,0.52-0.96,0.67-1.27,0.75
	c-0.24,0.06-1.52,0.39-2.32-0.45c-0.56-0.59-0.54-1.37-0.52-1.57c0.01-0.24-0.08-1.2,0.49-1.66c0,0,0.48-0.35,1.43-0.53
	c0.92-0.18,1.49,0.15,1.67,0.24c0.41,0.2,0.55,0.66,0.67,1.05C421.43,177.44,421.75,178.44,421.16,179.23z M421.82,172.93
	c-0.04,0.29-0.08,0.55-0.31,0.75c-0.47,0.39-1.35,0.28-2.19,0.23c-1.5-0.09-3,0.18-4.5,0.23c-3.43,0.14-2.93,0.13-3.51,0.14
	c-1.89,0.04-2.02-0.03-5.44-0.04c-1.02-0.01-1.92-0.01-3.69,0c-1.06,0-2.13-0.08-3.18,0c-1.34,0.09-2.08,0.27-3.01-0.05
	c-0.26-0.09-0.81-0.28-1.06-0.7c-0.03-0.06-0.09-0.17-0.12-0.94c-0.04-0.73,0-0.82,0.06-0.89c0.31-0.36,1.19-0.33,1.5-0.32
	c1.63,0.04,3.25-0.21,4.88-0.14c2.62,0.1,1.93-0.11,6.44-0.05c1.9,0.02,1.88,0.06,4.5,0.09c2.65,0.04,3.97,0.05,4.5,0
	c1.17-0.11,1.76-0.1,2.94-0.09c0.97,0.01,1.37,0.06,1.69,0.28C421.96,171.87,421.85,172.7,421.82,172.93z"/>
<path class="st0" d="M393.85,156.64c-1.12-0.09-2.25,0.17-3.37,0.23c-2.56,0.13-2.19,0.13-2.62,0.14c-1.42,0.04-1.52-0.03-4.07-0.04
	c-0.77-0.01-1.45-0.01-2.77,0c-0.79,0-1.59-0.08-2.38,0c-1,0.09-1.56,0.26-2.25-0.05c-0.2-0.09-0.61-0.29-0.8-0.7
	c-0.02-0.06-0.06-0.17-0.09-0.94c-0.03-0.74,0-0.82,0.05-0.89c0.23-0.37,0.89-0.34,1.12-0.33c1.22,0.05,2.44-0.2,3.65-0.14
	c1.96,0.11,1.45-0.1,4.82-0.04c1.43,0.02,1.41,0.06,3.37,0.09c1.99,0.03,2.98,0.05,3.37,0c0.88-0.11,1.32-0.11,2.2-0.09
	c0.73,0.01,1.03,0.05,1.27,0.28c0.48,0.44,0.4,1.27,0.37,1.49c-0.03,0.3-0.05,0.55-0.23,0.75
	C395.14,156.8,394.48,156.69,393.85,156.64z"/>
<path class="st0" d="M377.3,150.9c-0.04-0.27-0.08-0.45,0-0.67c0.14-0.34,0.46-0.48,0.51-0.5c0.36-0.16,0.55-0.32,0.62-0.29
	c0.23-0.08,0.64-0.12,1.07-0.15c0,0,0.3,0.01,0.69-0.02c0.8-0.08,1.72-0.16,3.05-0.13c1.14,0.03,1.71,0.04,1.97,0.04
	c0.84,0.02,1.22,0.02,1.92,0.05c0.62,0.02,0.62,0.03,1.04,0.04c0.81,0.02,1.09-0.01,1.72,0c0.93,0.01,0.86,0.07,1.67,0.08
	c0.93,0.01,1.27,0.01,2.76-0.08c0.6-0.04,0.99-0.08,1.38,0.16c0.47,0.29,0.87,0.92,0.75,1.59c-0.1,0.59-0.56,0.92-0.63,0.96
	c-0.5,0.35-1.01,0.22-1.92,0.17c-1.18-0.07-0.9,0.12-2.88,0.13c-1.27,0-1.22-0.07-2.51-0.09c-1.28-0.01-1.33,0.06-3.51,0.13
	c-1.63,0.05-2.81,0.04-3.22,0.04c-1.99-0.01-1.6-0.08-2.22-0.04c-1.15,0.07-1.7,0.26-2.01-0.09
	C377.46,152.13,377.53,152.12,377.3,150.9z"/>
<path class="st0" d="M413.67,176.59c0.49,0.44,0.4,1.27,0.38,1.5c-0.03,0.29-0.06,0.55-0.24,0.75c-0.35,0.39-1.01,0.28-1.64,0.23
	c-1.12-0.09-2.24,0.18-3.37,0.23c-2.56,0.14-2.19,0.13-2.62,0.15c-1.41,0.03-1.51-0.04-4.07-0.05c-0.76-0.01-1.44,0-2.76,0
	c-0.8,0-1.6-0.08-2.39,0c-1,0.09-1.55,0.27-2.25-0.05c-0.2-0.09-0.61-0.28-0.79-0.7c-0.03-0.06-0.07-0.17-0.1-0.94
	c-0.02-0.73,0.01-0.82,0.05-0.89c0.23-0.36,0.89-0.33,1.12-0.32c1.22,0.04,2.44-0.21,3.66-0.14c1.96,0.1,1.44-0.11,4.82-0.05
	c1.42,0.02,1.4,0.06,3.37,0.09c1.98,0.04,2.97,0.05,3.37,0c0.87-0.11,1.31-0.1,2.2-0.09C413.13,176.32,413.43,176.37,413.67,176.59z
	"/>
<path class="st0" d="M397.71,161.03c0-0.49-0.02-1.28,0.11-2.19c0.04-0.24,0.08-0.53,0.31-0.79c0.05-0.04,0.24-0.25,0.7-0.39
	c0.47-0.14,0.84-0.1,1.16-0.08c0.61,0.03,1.23-0.02,1.85-0.03c1.19-0.02,1.2-0.04,1.85-0.03c0.75,0.01,0.71,0.04,1.49,0.06
	c1.19,0.02,1.29-0.04,2.22,0c0.51,0.02,0.38,0.03,1.52,0.11c0.51,0.03,0.96,0.06,1.55,0.08c0.53,0.02,0.92,0.03,1.57,0.03
	c1.06,0.01,1.06-0.01,2.02,0c0.14,0,0.85,0.01,1.77,0.03c0.74,0.02,1.13,0.03,1.13,0.03c0.91,0.02,0.93,0.03,1.18,0.03
	c0.59-0.02,0.66-0.08,1.01-0.03c0.23,0.03,0.55,0.08,0.87,0.31c0.26,0.19,0.4,0.41,0.48,0.53c0.04,0.08,0.16,0.28,0.31,0.93
	c0.07,0.33,0.13,0.6,0.16,0.98c0.06,0.6-0.03,0.75-0.02,1.52c0,0.56,0.05,0.49,0.05,1.01c0.01,0.32,0,0.98-0.17,1.8
	c-0.12,0.62-0.19,0.98-0.45,1.4c-0.13,0.23-0.33,0.56-0.7,0.79c-0.51,0.33-1.08,0.27-1.4,0.25h-0.08c0.08,0.03,0.44,0.14-3.35,0.2
	c-1.36,0.02-2.04,0.03-2.89,0.03c-2.04-0.02-2.19-0.1-3.63-0.06c-0.77,0.02-1.55,0.02-1.85,0.03c-0.85,0.02-1.3,0.03-1.91,0.06
	c-1.31,0.05-1.37,0.1-2.48,0.14c-1.07,0.03-0.96-0.02-1.4,0.02c-0.45,0.05-0.81,0.13-1.32,0.03c-0.31-0.05-0.51-0.14-0.62-0.19
	c-0.11-0.06-0.44-0.22-0.65-0.48c-0.24-0.31-0.17-0.57-0.22-1.46c-0.04-0.78-0.09-0.63-0.14-1.49c-0.01-0.15-0.02-0.42-0.03-1.55
	C397.7,161.61,397.71,161.73,397.71,161.03z"/>
<path class="st0" d="M421.31,177.06c0.12,0.38,0.44,1.38-0.15,2.17c-0.38,0.52-0.96,0.67-1.27,0.75c-0.24,0.06-1.52,0.39-2.32-0.45
	c-0.56-0.59-0.54-1.37-0.52-1.57c0.01-0.24-0.08-1.2,0.49-1.66c0,0,0.48-0.35,1.43-0.53c0.92-0.18,1.49,0.15,1.67,0.24
	C421.05,176.21,421.19,176.67,421.31,177.06z"/>
<path class="st0" d="M421.82,172.93c-0.04,0.29-0.08,0.55-0.31,0.75c-0.47,0.39-1.35,0.28-2.19,0.23c-1.5-0.09-3,0.18-4.5,0.23
	c-3.43,0.14-2.93,0.13-3.51,0.14c-1.89,0.04-2.02-0.03-5.44-0.04c-1.02-0.01-1.92-0.01-3.69,0c-1.06,0-2.13-0.08-3.18,0
	c-1.34,0.09-2.08,0.27-3.01-0.05c-0.26-0.09-0.81-0.28-1.06-0.7c-0.03-0.06-0.09-0.17-0.12-0.94c-0.04-0.73,0-0.82,0.06-0.89
	c0.31-0.36,1.19-0.33,1.5-0.32c1.63,0.04,3.25-0.21,4.88-0.14c2.62,0.1,1.93-0.11,6.44-0.05c1.9,0.02,1.88,0.06,4.5,0.09
	c2.65,0.04,3.97,0.05,4.5,0c1.17-0.11,1.76-0.1,2.94-0.09c0.97,0.01,1.37,0.06,1.69,0.28C421.96,171.87,421.85,172.7,421.82,172.93z
	"/>
<path class="st1" d="M410.04,186.08c-0.77,0.99-0.84,1.05-0.94,1.12c-0.18,0.13-0.56,0.39-1.09,0.44c-0.55,0.05-0.96-0.15-1.49-0.4
	c-0.16-0.08-0.24-0.13-1.3-0.87c-0.94-0.66-1.23-0.87-1.27-1.23c-0.01-0.07-0.04-0.33,0.11-0.51c0.31-0.39,1.08-0.04,2.07,0.07
	c1.88,0.22,3.29-0.53,4.13,0.04c0.23,0.16,0.28,0.32,0.29,0.36C410.61,185.34,410.45,185.55,410.04,186.08z"/>
<path class="st1" d="M420.09,184.91c0,0-0.29,0.28-0.4,0.4c-0.3,0.29-0.48,0.41-0.73,0.62c-0.43,0.35-0.72,0.69-0.9,0.9
	c-0.49,0.56-0.73,0.84-0.84,1.24c-0.11,0.42-0.06,0.8,0,1.23c0.07,0.48,0.16,0.54,0.22,1.05c0.04,0.38,0.08,0.66,0,1.01
	c-0.12,0.53-0.39,0.87-0.54,1.06c-0.39,0.47-0.83,0.68-0.91,0.72c-0.41,0.19-0.76,0.23-1.05,0.26c-0.42,0.04-0.75,0-1.09-0.04
	c-0.53-0.06-0.56-0.12-0.87-0.15c-0.79-0.07-1.43,0.23-1.56,0.29c-0.67,0.33-1.05,0.86-1.27,1.16c-0.32,0.46-0.36,0.7-0.8,1.2
	c-0.25,0.29-0.4,0.46-0.65,0.58c-0.53,0.26-1.07,0.14-1.38,0.07c-0.59-0.13-0.98-0.42-1.23-0.61c-0.18-0.14-0.31-0.27-0.58-0.55
	c-0.48-0.48-0.59-0.66-1.05-1.16c-0.54-0.58-0.82-0.88-1.09-0.94c-0.28-0.07-0.56-0.01-1.12,0.11c-0.52,0.11-0.51,0.18-0.84,0.22
	c-0.59,0.07-1.05-0.04-1.49-0.15c-0.52-0.13-0.84-0.21-1.19-0.47c-0.41-0.3-0.62-0.65-0.76-0.91c-0.17-0.28-0.33-0.55-0.37-0.94
	c-0.02-0.29,0.03-0.53,0.11-0.87c0.12-0.49,0.22-0.56,0.22-0.87c0-0.14-0.05-0.32-0.14-0.69c-0.12-0.44-0.18-0.67-0.26-0.83
	c-0.1-0.22-0.28-0.44-0.65-0.87c-0.34-0.4-0.5-0.6-0.76-0.84c-0.26-0.23-0.46-0.41-0.76-0.61c-0.5-0.32-0.78-0.37-0.87-0.66
	c-0.01-0.02-0.08-0.25,0.03-0.43c0.12-0.19,0.37-0.23,0.65-0.25c0.64-0.06,1.04-0.02,1.49,0c0.73,0.01,0.66-0.08,1.23-0.04
	c0.42,0.03,0.85,0.06,1.35,0.29c0.21,0.1,0.66,0.31,1.01,0.76c0.16,0.21,0.19,0.32,0.44,0.83c0.26,0.57,0.43,0.92,0.65,1.27
	c0.29,0.47,0.32,0.38,1.12,1.42c0.38,0.49,0.44,0.59,0.66,0.8c0.14,0.13,0.51,0.45,1.05,0.68c0.37,0.17,0.84,0.22,1.77,0.33
	c0.49,0.06,1,0.11,1.71,0.15c0.69,0.03,1.05,0.05,1.52,0c0.44-0.05,1.04-0.12,1.74-0.44c0.22-0.1,0.78-0.37,1.34-0.91
	c0.44-0.4,0.68-0.77,0.95-1.19c0.62-0.97,0.53-1.21,1.16-2.18c0.59-0.93,0.95-1.14,1.12-1.23c0.43-0.22,0.86-0.26,1.16-0.29
	c0.4-0.04,0.46,0.02,1.38,0.04c0.52,0.01,0.79,0.01,1.01,0c0.76-0.06,1.14-0.23,1.24-0.08C420.31,184.47,420.31,184.6,420.09,184.91
	z"/>
<path class="st0" d="M420.83,164.94c-0.12,0.62-0.19,0.98-0.45,1.4c-0.13,0.23-0.33,0.56-0.7,0.79c-0.51,0.33-1.08,0.27-1.4,0.25
	h-0.08c0.08,0.03,0.44,0.14-3.35,0.2c-1.36,0.02-2.04,0.03-2.89,0.03c-2.04-0.02-2.19-0.1-3.63-0.06c-0.77,0.02-1.55,0.02-1.85,0.03
	c-0.85,0.02-1.3,0.03-1.91,0.06c-1.31,0.05-1.37,0.1-2.48,0.14c-1.07,0.03-0.96-0.02-1.4,0.02c-0.45,0.05-0.81,0.13-1.32,0.03
	c-0.31-0.05-0.51-0.14-0.62-0.19c-0.11-0.06-0.44-0.22-0.65-0.48c-0.24-0.31-0.17-0.57-0.22-1.46c-0.04-0.78-0.09-0.63-0.14-1.49
	c-0.01-0.15-0.02-0.42-0.03-1.55c-0.01-1.05,0-0.93,0-1.63c0-0.49-0.02-1.28,0.11-2.19c0.04-0.24,0.08-0.53,0.31-0.79
	c0.05-0.04,0.24-0.25,0.7-0.39c0.47-0.14,0.84-0.1,1.16-0.08c0.61,0.03,1.23-0.02,1.85-0.03c1.19-0.02,1.2-0.04,1.85-0.03
	c0.75,0.01,0.71,0.04,1.49,0.06c1.19,0.02,1.29-0.04,2.22,0c0.51,0.02,0.38,0.03,1.52,0.11c0.51,0.03,0.96,0.06,1.55,0.08
	c0.53,0.02,0.92,0.03,1.57,0.03c1.06,0.01,1.06-0.01,2.02,0c0.14,0,0.85,0.01,1.77,0.03c0.74,0.02,1.13,0.03,1.13,0.03
	c0.91,0.02,0.93,0.03,1.18,0.03c0.59-0.02,0.66-0.08,1.01-0.03c0.23,0.03,0.55,0.08,0.87,0.31c0.26,0.19,0.4,0.41,0.48,0.53
	c0.04,0.08,0.16,0.28,0.31,0.93c0.07,0.33,0.13,0.6,0.16,0.98c0.06,0.6-0.03,0.75-0.02,1.52c0,0.56,0.05,0.49,0.05,1.01
	C421.01,163.46,421,164.12,420.83,164.94z"/>
<path class="st1" d="M415.76,147.18c-0.02,0.3-0.03,0.56-0.12,0.88c-0.11,0.39-0.27,0.66-0.41,0.91c-0.28,0.49-0.44,0.75-0.76,0.98
	c-0.28,0.19-0.53,0.24-1.03,0.34c-0.26,0.05-0.63,0.08-1.35,0.13c-0.41,0.02-0.61,0.04-0.72,0.03c-0.5-0.04-0.87-0.21-1.17-0.35
	c-0.24-0.11-0.47-0.22-0.75-0.44c-0.31-0.24-0.49-0.49-0.56-0.59c-0.32-0.45-0.42-0.88-0.47-1.1c-0.09-0.37-0.09-0.67-0.1-0.94
	c0-0.06,0-0.12,0.03-0.76c0.04-0.75,0.05-0.8,0.07-0.88c0.07-0.31,0.2-0.51,0.43-0.88c0.27-0.4,0.42-0.64,0.73-0.91
	c0.12-0.1,0.57-0.48,1.28-0.65c0.33-0.09,0.57-0.09,0.95-0.1c0.67-0.01,1.17,0.08,1.38,0.13c0.42,0.09,0.62,0.13,0.88,0.28
	c0.13,0.08,0.23,0.16,0.81,0.82c0.63,0.7,0.68,0.79,0.72,0.91c0.07,0.16,0.09,0.45,0.13,1.03
	C415.77,146.55,415.78,146.82,415.76,147.18z"/>
<path class="st1" d="M422.85,146.71c-0.03,0.2-0.1,0.66-0.39,1.11c-0.09,0.15-0.28,0.35-0.68,0.76c-0.36,0.37-0.53,0.55-0.62,0.61
	c-0.33,0.24-0.46,0.2-1.18,0.56c-0.23,0.11-0.35,0.17-0.49,0.25c-0.56,0.35-0.73,0.61-1.03,0.56c-0.05-0.01-0.19-0.05-0.27-0.16
	c-0.15-0.22,0.01-0.51,0.14-0.88c0.14-0.4,0.18-0.78,0.27-1.51c0.05-0.4,0.05-0.68,0.05-1.24c-0.01-0.94-0.02-1.39-0.16-1.97
	c-0.14-0.54-0.23-0.92-0.47-1.36c-0.06-0.11-0.22-0.38-0.31-0.77c-0.06-0.26-0.13-0.53,0-0.66c0.09-0.09,0.25-0.05,0.92,0.16
	c0.86,0.26,0.89,0.27,0.99,0.32c0.17,0.07,0.22,0.11,0.91,0.55c0.81,0.51,0.81,0.5,0.9,0.57c0.43,0.36,0.69,0.75,0.85,1.02
	c0.18,0.28,0.35,0.54,0.47,0.93C422.79,145.77,422.91,146.18,422.85,146.71z"/>
<path class="st1" d="M405.34,150.02c0.14,0.27,0.28,0.37,0.24,0.44c-0.08,0.15-0.87-0.13-0.97-0.16c-0.08-0.03-0.34-0.13-0.78-0.36
	c-0.51-0.27-0.54-0.34-1.09-0.66c-0.53-0.3-0.54-0.25-0.76-0.42c-0.25-0.2-0.41-0.4-0.7-0.79c-0.24-0.32-0.37-0.47-0.45-0.65
	c-0.16-0.37-0.18-0.7-0.19-0.96c-0.01-0.26-0.03-0.61,0.12-1.01c0.11-0.33,0.27-0.55,0.43-0.78c0.04-0.05,0.19-0.25,0.42-0.49
	c0.23-0.24,0.3-0.26,0.79-0.67c0.52-0.44,0.57-0.51,0.81-0.63c0.23-0.12,0.21-0.05,0.62-0.22c0.28-0.11,0.36-0.17,0.91-0.41
	c0.12-0.05,0.3-0.13,0.56-0.18c0.19-0.04,0.37-0.06,0.43,0.02c0.06,0.09-0.05,0.24-0.18,0.54c-0.03,0.09-0.04,0.11-0.18,0.69
	c-0.26,1-0.24,0.89-0.3,1.11c-0.11,0.48-0.16,0.72-0.2,1.03c-0.02,0.19-0.03,0.43-0.05,0.88c-0.01,0.4-0.02,0.6-0.01,0.79
	c0.01,0.36,0.05,0.63,0.1,1c0.06,0.47,0.07,0.33,0.22,1.17C405.21,149.69,405.23,149.82,405.34,150.02z"/>
<path class="st1" d="M438.42,128.44c0.09-0.55,0.25-1.13,0-1.8c-0.05-0.13-0.37-0.92-1.14-1.23c-0.27-0.11-0.49-0.11-0.84-0.11
	c-1.29-0.02-1.94-0.02-2.13,0c-1.37,0.13-4.91-0.04-11.35-0.03c-6.01,0-5.35,0.15-11.67,0.17c-4.47,0.02-4.14-0.06-9.61-0.06
	c-5.46,0.01-6.07,0.08-10.77,0.06c-3.88-0.02-3.45-0.07-8.62-0.11c-3.36-0.04-2.96-0.01-12.08-0.03c-2.52-0.01-5.05,0.16-7.57,0
	c-2.32-0.16-4.67,0.41-6.98,0.11c-0.25-0.03-0.95-0.13-1.55,0.26c-0.61,0.41-0.83,1.16-0.93,1.49c-0.21,0.73-0.16,1.33-0.14,1.45
	c0.19,2.17-0.14,4.36,0.05,6.53c0.1,1.02,0.11,4.87,0.15,12.57c0.02,4.25-0.03,3.59-0.03,10.31c0,5.33,0.03,5.37,0.03,10.33
	c0,5.27-0.04,5.33-0.03,9.98c0.01,3.71,0.03,4.26,0.03,8.13c0,2.06,0,4.3-0.03,7.3c-0.05,5.19-0.09,7.69-0.09,7.69
	c-0.02,1.23,0.05,2.47-0.03,3.7c-0.11,1.98-0.32,2.72,0.06,3.87c0.16,0.47,0.59,1.72,1.72,2.33c0.69,0.37,1.03,0.16,3.65,0.18
	c1.47,0.01,1.43,0.08,2.77,0.07c1.48-0.01,2.46-0.09,3.26-0.14c1.29-0.08,2.18-0.08,5.54-0.06c5.59,0.05,8.05,0.13,10.69,0.12
	c4.5-0.02,4.92-0.06,11.06-0.12c4.94-0.04,7.41-0.06,10.36-0.05c5.87,0.02,6.33,0.12,11.56,0.11c6.41-0.01,5.39-0.17,8.65-0.08
	c3.5,0.08,7.04-0.48,10.5,0.05c0.32,0.05,1.97,0.32,3.7-0.38c0.5-0.19,0.95-0.38,1.31-0.84c0.58-0.74,0.46-1.61,0.38-3.32
	c-0.05-1.03,0.01-2.06-0.06-3.08c-0.22-3.17,0.13-3.96,0.12-9.32c-0.01-2.94-0.11-2.22-0.15-6.05c0-0.73-0.01-1.56,0.03-7.6
	c0.03-4.05,0.03-3.76,0.03-4.51c0-3.6-0.05-4.08-0.06-7.86c0-1.08,0-3.21,0.03-5.85c0.04-3.13,0.08-3.83,0.12-6.03
	c0.07-4.7-0.08-4.83-0.06-10.31c0.01-3.69,0.1-7.66,0.12-8.44c0.05-2.63,0.11-4.14,0.05-6.05
	C438.41,129.36,438.26,129.34,438.42,128.44z M428.46,197.07l-0.56,3.2l-1.61,0.85h-59.33l-2.54-0.47l-0.91-1.98v-62.13l2.26-1.26
	h59.86l2.83,1.04V197.07z"/>
<polygon class="st0" points="428.46,136.32 428.46,197.07 427.9,200.27 426.29,201.12 366.96,201.12 364.42,200.65 363.51,198.67 
	363.51,136.54 365.77,135.28 425.63,135.28 "/>
<path class="st1" d="M460.39,159.65c-0.19,0.42-0.43,0.68-0.52,0.77c-0.07,0.07-0.45,0.46-1.06,0.66c-0.69,0.23-1.29,0.09-1.8,0
	c-0.48-0.08-1.39-0.13-3.23-0.22c-0.66-0.03-1.72-0.08-3.08,0c-0.73,0.05-1.47,0.12-2.9,0.19c-1.08,0.04-1.64,0.04-2.16-0.33
	c-0.5-0.37-0.72-0.9-0.77-1.03c-0.18-0.47-0.16-0.89-0.15-1.32c0.02-0.39,0.07-0.58,0.11-0.88c0.11-0.7,0.07-1.22,0-2.2
	c-0.08-1.22-0.21-1.26-0.14-1.91c0.05-0.52,0.09-1,0.44-1.47c0.47-0.64,1.17-0.83,1.43-0.88c0.4-0.08,0.75-0.04,1.1,0
	c0.6,0.07,0.65,0.2,1.13,0.22c0.34,0.02,0.82,0.04,1.22-0.26c0.07-0.05,0.26-0.21,0.47-0.69c0.33-0.75,0.33-1.43,0.33-1.54
	c-0.01-1.79-0.01-2.68-0.11-3.78c-0.03-0.31-0.03-1.44-0.03-3.71c-0.01-2.97,0.02-3.46,0.03-6.93c0.01-3.2-0.01-2.94,0-5.9
	c0.01-1.05,0.02-2.11,0-3.64c-0.01-1.06-0.03-2.31-0.03-2.67c-0.04-1.91-0.04-1.7-0.04-1.99c0.02-2.31,0.39-3.68,0.11-5.57
	c-0.05-0.35-0.16-0.93-0.62-1.32c-0.33-0.28-0.7-0.35-1.11-0.4c-1.57-0.22-2.49-0.08-2.49-0.08c-1.55,0.24-3.13,0.01-4.7,0.04
	c-1.98,0.04-4.31,0.08-6.67,0.07c-2.16-0.01-2.12-0.06-4.84-0.11c-4.25-0.07-4.65,0.04-10.6,0c-3.46-0.02-5.18-0.03-5.21-0.03
	c-1.43-0.13-2.87,0.16-4.29,0c-0.2-0.03-0.78-0.1-1.33,0.22c-0.57,0.33-0.78,0.91-0.8,0.99c-0.04,0.11-0.1,0.31,0,1.35
	c0.08,0.95,0.15,1.08,0.11,1.54c-0.04,0.35-0.08,0.72-0.33,1.07c-0.22,0.3-0.51,0.45-0.74,0.55c-0.99,0.43-2.25,0.41-2.93,0.4
	c-2.46-0.02-2.75,0.09-3.74-0.15c-1.14-0.26-1.52-0.59-1.73-0.84c-0.35-0.41-0.46-0.89-0.62-1.54c-0.18-0.76-0.21-1.35-0.22-1.69
	c-0.08-1.99-0.12-2.98-0.11-3.74c0-0.23,0.04-1.17,0.11-3.04c0.05-1.39,0.08-2.09,0.33-2.72c0.17-0.44,0.49-1.23,1.28-1.8
	c0.58-0.41,1.12-0.5,2.02-0.66c0.44-0.07,0.58-0.07,2.72-0.14c1.39-0.05,1.69-0.07,2.38-0.08c0.78-0.01,1.37,0,1.58,0
	c0.9,0.02,1.38,0.04,2.27,0.08c1.22,0.04,2.25,0.06,2.79,0.07c1.45,0.02,2.28-0.02,3.26-0.04c2.2-0.04,2.57,0.07,5.43,0.11
	c2.51,0.05,2.3-0.03,6.5-0.03c1.55,0,1.65,0.01,5.31,0.03c5.29,0.04,4.87,0.02,6.57,0.04c7.15,0.1,6.18,0.41,9.02,0.26
	c2.48-0.13,4.98,0.14,7.45-0.11c0.79-0.08,2.32-0.27,3.12,0.62c0.28,0.32,0.39,0.68,0.51,1.84c0.2,1.95,0.14,3.4,0.11,5.06
	c-0.02,1.49,0.02,1.16,0,2.97c-0.02,1.97-0.07,2.51-0.11,4.18c-0.04,1.9,0.02,1.54,0,5.61c0,1.95-0.02,3.65-0.03,4.62
	c-0.03,2.57-0.04,2.18-0.04,2.79c0.01,3.43,0.28,4.17,0.26,7.38c-0.01,0.3-0.01-0.02-0.08,2.86c-0.08,3.25-0.08,3.88-0.07,4.69
	c0.01,0.87,0.03,1.16,0.04,2.17c0,1.25-0.03,1.54-0.04,2.53c-0.02,2.04,0.1,2.17,0.11,4.66c0.01,2.15-0.09,1.65-0.04,2.38
	C460.6,158.17,460.74,158.86,460.39,159.65z"/>
<path class="st1" d="M460.88,193.76c-0.01,1.51,0,0.86,0,5.97c0,6.61-0.01,6.87,0,9.3c0.02,3.53,0.05,3.53,0.05,6.27
	c0,3.2,0,4.8-0.05,6.4c-0.1,3.49-0.24,3.74-0.1,5.21c0.11,1.05,0.1,1.64,0.1,2.84c-0.01,1.56-0.11,2.08-0.43,2.5
	c-0.56,0.74-1.51,0.89-2.03,0.97c-4.1,0.59-9.39,0.21-9.73,0.19c-0.1-0.01-2-0.05-5.78-0.14c-2.97-0.08-6.08-0.15-9.97-0.2
	c-3-0.03-5.38-0.04-7.18-0.04c-1.15-0.01-2.66-0.01-5.64,0c-7.01,0-10.52,0-10.74,0.04c-0.46,0.08-1.69,0.09-4.15,0.1
	c-0.69,0-1.46,0-2.07-0.53c-0.49-0.42-0.66-1.01-0.82-1.54c-0.23-0.79-0.22-1.44-0.19-2.22c0.07-1.77,0.2-2.19,0.29-3.71
	c0.07-1.24,0.06-2.25,0.05-2.94c-0.02-1.36-0.03-2.04-0.1-2.65c-0.17-1.52-0.42-1.94-0.1-2.45c0.38-0.6,1.19-0.76,1.79-0.87
	c0.63-0.12,0.81-0.01,2.16,0c0.77,0.01,1.36-0.03,1.79-0.05c1.95-0.1,2.18-0.3,2.74-0.05c0.55,0.25,0.84,0.67,1.35,1.4
	c0.45,0.64,0.8,1.14,0.92,1.88c0.14,0.9-0.19,1.34,0.14,2.31c0.11,0.32,0.18,0.51,0.34,0.68c0.59,0.62,1.67,0.26,3.08,0.09
	c1.69-0.2,1.39,0.17,4.72,0.1c1.25-0.03,1.43-0.08,2.9-0.15c1.13-0.05,2.25-0.07,5.29-0.04c6.49,0.05,6.17,0.21,8.44,0.09
	c1.64-0.08,2.43-0.19,4.57-0.24c2.29-0.05,3.44-0.07,3.81,0c0.83,0.17,1.83,0.49,2.94,0.1c0.54-0.19,0.76-0.43,0.87-0.58
	c0.4-0.55,0.24-1.25,0.14-1.93c-0.17-1.13-0.08-2.28-0.14-3.42c-0.04-0.72-0.1-1.96-0.1-3.27c0-1.34,0.05-2.03,0.1-3.23
	c0.03-0.85,0.03-2.36,0.04-5.35c0.01-3.47,0.02-5.21,0-6.21c-0.05-3.05-0.13-3.38-0.04-4.97c0.07-1.36,0.18-1.97,0.19-3.47
	c0-1.68-0.13-1.6-0.15-3.27c-0.01-2.26-0.02-3.4,0.15-4.72c0.06-0.49,0.18-1.3-0.15-2.22c-0.13-0.38-0.35-1-0.91-1.25
	c-0.21-0.1-0.37-0.09-1.64,0.05c-1.15,0.12-1.22,0.14-1.4,0.09c-0.89-0.22-1.35-1.17-1.44-1.35c-0.16-0.32-0.23-0.61-0.29-2.36
	c-0.03-0.87-0.04-1.5-0.05-2.21c-0.02-2.18,0-2.42,0.14-2.8c0.16-0.39,0.55-1.15,1.35-1.64c0.64-0.38,1.23-0.4,2.36-0.43
	c1.29-0.03,1.37,0.14,2.56,0.14c1.55,0.01,1.53-0.28,3.23-0.28c0.59-0.01,1.26,0.06,2.6,0.19c1,0.1,1.29,0.15,1.64,0.29
	c0.33,0.13,1.05,0.47,1.63,1.2c0.14,0.17,0.62,0.81,0.87,2.41c0.19,1.17,0.13,2.05,0.1,2.65c-0.09,1.88,0.1,1.71,0.14,4.87
	c0.03,1.79-0.03,2.45-0.09,5.1C460.91,187.19,460.9,189.38,460.88,193.76z"/>
<path class="st1" d="M388.08,116.98c-0.51,0.9-1.57,1.3-1.81,1.39c-0.58,0.23-0.88,0.19-1.94,0.28c-2.26,0.2-2.23,0.49-3.34,0.42
	c-0.52-0.03-2.32-0.15-2.79-1.18c-0.05-0.13-0.07-0.21-0.07-1.05c0-1.98,0.09-2.34-0.14-2.78c-0.22-0.43-0.64-0.75-1.46-1.04
	c-2.09-0.75-4.09-0.34-6.26-0.14c-2.38,0.21-4.78-0.01-7.17,0h-4.45c-3.82-0.03-4.11-0.11-6.26-0.07c-3.87,0.07-3.28,0.33-5.01,0.21
	c-3.01-0.22-4.55-0.99-5.78,0c-0.57,0.45-0.81,1.09-1.04,1.67c-0.57,1.46-0.37,2.78-0.28,3.48c0.26,2.02,0.02,4.08,0.14,6.12
	c0.13,2.19,0.15,3.99,0.21,7.58c0.06,4.23-0.02,7.63-0.07,9.95c-0.11,4.57-0.17,6.85-0.21,7.1c-0.23,1.32-0.06,2.68-0.12,4.02
	c-0.01,0.15-0.04,0.94,0.38,1.73c0.26,0.5,0.53,0.64,0.6,0.68c0.36,0.17,0.63,0.04,1.18,0.01c0.13,0,0.16,0,1.56,0.21
	c1.04,0.15,1.56,0.23,1.81,0.47c0.23,0.24,0.31,0.52,0.37,0.74c0.35,1.45,0.29,2.91,0.27,3.34c-0.11,2.36-0.19,2.83-0.27,3.2
	c-0.29,1.29-0.63,1.78-1.05,2.09c-0.43,0.32-0.87,0.39-1.11,0.42c-2.03,0.28-4.23,0.04-5.85,0c-1.63-0.04-1.59,0.16-4.46,0.16
	c-2.32,0.01-2.81-0.12-3.2-0.47c-0.72-0.66-0.57-1.61-0.51-4.34c0.08-3.52-0.17-2.03-0.04-6.21c0.1-3.17,0.21-2.96,0.28-5.35
	c0.09-3.15-0.09-3.9-0.14-8.98c-0.01-0.76,0-1.95,0-4.31c0.02-6.65,0.02-9.97,0.07-13.16c0.05-3.35,0.11-4.96,0.07-8
	c-0.03-2.14-0.04-3.22-0.07-3.75c-0.11-2.02-0.06-4.04-0.14-6.06c-0.03-0.9-0.06-1.61,0.42-2.16c0.3-0.33,0.79-0.59,2.43-0.69
	c1.59-0.09,2.75,0.05,3.55,0.14c0.19,0.02,1.52,0.08,4.18,0.21c2.26,0.1,3.88,0.12,6.4,0.14c0.76,0,3.8,0.02,8-0.07
	c2.59-0.06,2.75-0.1,4.73-0.14c2.01-0.05,3.38-0.04,8.42,0c11.81,0.1,11.65,0.15,12.53,0.07c1.55-0.14,3.12,0.1,4.66-0.07
	c0.99-0.12,1.97-0.29,2.5,0.28c0.33,0.34,0.33,0.77,0.35,1.74c0.1,3.45,0.2,0.92,0.14,3.2c-0.15,5.42-0.33,4.85-0.21,5.91
	C388.26,115.41,388.57,116.14,388.08,116.98z"/>
<path class="st1" d="M392.77,232.48c-0.35,0.58-0.93,0.84-1.1,0.91c-0.78,0.32-1.52,0.14-1.73,0.1c-2.21-0.49-4.54,0.01-6.8-0.19
	c-2.63-0.25-3.06-0.03-12.26-0.15c-6.21-0.08-5.41-0.17-14.51-0.33c-6.09-0.11-9.18-0.17-11.84-0.1c-2.74,0.07-5.52-0.2-8.23,0.19
	c-0.9,0.13-1.77,0.1-3.5,0.05c-1.41-0.04-2.01-0.14-2.4-0.57c-0.58-0.66-0.34-1.74-0.24-2.3c0.42-2.18-0.07-4.45,0.1-6.66
	c0.05-0.59,0.02-0.38-0.1-9.49c-0.05-4.48-0.08-6.77-0.09-9.05c-0.01-1.62,0-1.65,0-7.71v-10.16c0-7.9,0-7.9,0-7.9
	c-0.01-0.23-0.01-0.95,0-2.39c0-0.73,0.01-1.41,0.24-2.26c0.17-0.65,0.28-1.03,0.62-1.29c0.42-0.32,0.85-0.21,1.92-0.19
	c0.87,0.01,0.43-0.07,2.49-0.14c0.79-0.04,1.61-0.07,2.68-0.05c1.43,0.02,1.45,0.09,2.73,0.09c0.84,0,1.49,0.01,2.4-0.04
	c1.43-0.09,1.89-0.21,2.34,0.14c0.46,0.35,0.59,0.93,0.67,1.29c0.15,0.67,0.03,1.12-0.05,1.73c-0.07,0.59-0.01,1.29,0.1,2.68
	c0.18,2.22,0.47,2.51,0.14,3.21c-0.4,0.88-1.27,1.31-1.43,1.39c-0.7,0.34-1.36,0.34-1.68,0.33c-1.16-0.01-1.68-0.5-2.11-0.19
	c-0.18,0.14-0.25,0.35-0.33,0.97c-0.18,1.38-0.15,2.48-0.15,2.71c0.07,2.38,0.06,2.16,0.08,2.49c0.09,1.6,0.16,1.6,0.21,2.68
	c0.08,1.46,0.01,2.59-0.12,4.55c-0.07,1.1-0.12,1.61-0.17,2.2c-0.2,2.66,0.01,4.21,0.1,6.6c0.15,3.91-0.27,3.12-0.14,7.32
	c0,0.13,0.16,5.23,0.07,7.04c-0.05,0.88-0.07,1.32-0.07,1.37c-0.11,0.91-0.26,1.23-0.08,1.39c0.24,0.22,0.76-0.21,1.65-0.42
	c0.88-0.21,1.54-0.06,2.15,0.02c1.15,0.17,1.56,0.02,5.05-0.04c3.47-0.07,3.31,0.06,10.1,0.07c3.42,0,4.64,0,4.64,0
	c2.54-0.01,3.3-0.02,4.72,0.02c2.8,0.09,2.34,0.22,3.55,0.17c2.16-0.08,3.43-0.48,5.22-0.14c0.24,0.04,0.57,0.11,1.07,0.17
	c1.23,0.12,1.38-0.09,2.49,0.02c0.73,0.07,1.05,0.21,1.25,0c0.17-0.17,0.09-0.39,0.08-0.99c-0.01-0.1,0.04-0.62,0.14-1.64
	c0.09-0.96,0.14-1.44,0.17-1.53c0.35-0.97,1.16-1.45,1.28-1.52c0.41-0.24,0.76-0.29,1.38-0.39c0.63-0.09,1-0.08,2.29-0.07
	c0.82,0.01,1.55,0.01,2.59,0.07c1.13,0.07,1.44,0.13,1.72,0.37c0.33,0.28,0.43,0.67,0.6,1.45c0.12,0.54,0.24,1.31,0.2,2.65
	c-0.03,0.71-0.08,1.01-0.13,1.62c-0.09,1.21-0.06,2.07-0.02,3.52c0.08,2.29,0.11,3.44,0.19,4.02
	C393.04,231.06,393.19,231.79,392.77,232.48z"/>
<path class="st0" d="M395.72,155.65c-0.03,0.3-0.05,0.55-0.23,0.75c-0.35,0.4-1.01,0.29-1.64,0.24c-1.12-0.09-2.25,0.17-3.37,0.23
	c-2.56,0.13-2.19,0.13-2.62,0.14c-1.42,0.04-1.52-0.03-4.07-0.04c-0.77-0.01-1.45-0.01-2.77,0c-0.79,0-1.59-0.08-2.38,0
	c-1,0.09-1.56,0.26-2.25-0.05c-0.2-0.09-0.61-0.29-0.8-0.7c-0.02-0.06-0.06-0.17-0.09-0.94c-0.03-0.74,0-0.82,0.05-0.89
	c0.23-0.37,0.89-0.34,1.12-0.33c1.22,0.05,2.44-0.2,3.65-0.14c1.96,0.11,1.45-0.1,4.82-0.04c1.43,0.02,1.41,0.06,3.37,0.09
	c1.99,0.03,2.98,0.05,3.37,0c0.88-0.11,1.32-0.11,2.2-0.09c0.73,0.01,1.03,0.05,1.27,0.28C395.83,154.6,395.75,155.43,395.72,155.65
	z"/>
<path class="st0" d="M396.45,151.02c-0.1,0.59-0.56,0.92-0.63,0.96c-0.5,0.35-1.01,0.22-1.92,0.17c-1.18-0.07-0.9,0.12-2.88,0.13
	c-1.27,0-1.22-0.07-2.51-0.09c-1.28-0.01-1.33,0.06-3.51,0.13c-1.63,0.05-2.81,0.04-3.22,0.04c-1.99-0.01-1.6-0.08-2.22-0.04
	c-1.15,0.07-1.7,0.26-2.01-0.09c-0.09-0.1-0.02-0.11-0.25-1.33c-0.04-0.27-0.08-0.45,0-0.67c0.14-0.34,0.46-0.48,0.51-0.5
	c0.36-0.16,0.55-0.32,0.62-0.29c0.23-0.08,0.64-0.12,1.07-0.15c0,0,0.3,0.01,0.69-0.02c0.8-0.08,1.72-0.16,3.05-0.13
	c1.14,0.03,1.71,0.04,1.97,0.04c0.84,0.02,1.22,0.02,1.92,0.05c0.62,0.02,0.62,0.03,1.04,0.04c0.81,0.02,1.09-0.01,1.72,0
	c0.93,0.01,0.86,0.07,1.67,0.08c0.93,0.01,1.27,0.01,2.76-0.08c0.6-0.04,0.99-0.08,1.38,0.16
	C396.17,149.72,396.57,150.35,396.45,151.02z"/>
<path class="st0" d="M414.05,178.09c-0.03,0.29-0.06,0.55-0.24,0.75c-0.35,0.39-1.01,0.28-1.64,0.23c-1.12-0.09-2.24,0.18-3.37,0.23
	c-2.56,0.14-2.19,0.13-2.62,0.15c-1.41,0.03-1.51-0.04-4.07-0.05c-0.76-0.01-1.44,0-2.76,0c-0.8,0-1.6-0.08-2.39,0
	c-1,0.09-1.55,0.27-2.25-0.05c-0.2-0.09-0.61-0.28-0.79-0.7c-0.03-0.06-0.07-0.17-0.1-0.94c-0.02-0.73,0.01-0.82,0.05-0.89
	c0.23-0.36,0.89-0.33,1.12-0.32c1.22,0.04,2.44-0.21,3.66-0.14c1.96,0.1,1.44-0.11,4.82-0.05c1.42,0.02,1.4,0.06,3.37,0.09
	c1.98,0.04,2.97,0.05,3.37,0c0.87-0.11,1.31-0.1,2.2-0.09c0.72,0.01,1.02,0.06,1.26,0.28C414.16,177.03,414.07,177.86,414.05,178.09
	z"/>
<path class="st0" d="M421.82,172.93c-0.04,0.29-0.08,0.55-0.31,0.75c-0.47,0.39-1.35,0.28-2.19,0.23c-1.5-0.09-3,0.18-4.5,0.23
	c-3.43,0.14-2.93,0.13-3.51,0.14c-1.89,0.04-2.02-0.03-5.44-0.04c-1.02-0.01-1.92-0.01-3.69,0c-1.06,0-2.13-0.08-3.18,0
	c-1.34,0.09-2.08,0.27-3.01-0.05c-0.26-0.09-0.81-0.28-1.06-0.7c-0.03-0.06-0.09-0.17-0.12-0.94c-0.04-0.73,0-0.82,0.06-0.89
	c0.31-0.36,1.19-0.33,1.5-0.32c1.63,0.04,3.25-0.21,4.88-0.14c2.62,0.1,1.93-0.11,6.44-0.05c1.9,0.02,1.88,0.06,4.5,0.09
	c2.65,0.04,3.97,0.05,4.5,0c1.17-0.11,1.76-0.1,2.94-0.09c0.97,0.01,1.37,0.06,1.69,0.28C421.96,171.87,421.85,172.7,421.82,172.93z
	"/>
<path class="st0" d="M421.16,179.23c-0.38,0.52-0.96,0.67-1.27,0.75c-0.24,0.06-1.52,0.39-2.32-0.45c-0.56-0.59-0.54-1.37-0.52-1.57
	c0.01-0.24-0.08-1.2,0.49-1.66c0,0,0.48-0.35,1.43-0.53c0.92-0.18,1.49,0.15,1.67,0.24c0.41,0.2,0.55,0.66,0.67,1.05
	C421.43,177.44,421.75,178.44,421.16,179.23z"/>
</svg>
